<svg width="323" height="100" xmlns="http://www.w3.org/2000/svg" baseProfile="tiny" version="1.2">
 <desc>Created by EvoPdf</desc>

 <g>
  <title>Layer 1</title>
  <g id="svg_2" stroke-miterlimit="2" stroke-linecap="square" stroke="#000000" fill="#000000"/>
  <g id="svg_3" stroke-miterlimit="2" stroke-linecap="square" stroke="#000000" fill="#000000"/>
  <g id="svg_4" stroke-miterlimit="2" stroke-linecap="square" stroke="#000000" fill="#000000"/>
  <g id="svg_5" stroke-miterlimit="2" stroke-linecap="square" stroke="#000000" fill="#000000"/>
  <g id="svg_6" transform="matrix(1 0 0 1 8 8)" stroke-miterlimit="2" stroke-linecap="square" stroke="#000000" fill="#000000"/>
  <g id="svg_7" transform="matrix(1 0 0 1 8 8)" fill="#ffffff">
   <path id="svg_8" d="m-7.45739,91.85493l322.7,0l0,-99.4l-322.7,0l0,99.4" fill-rule="nonzero" vector-effect="none"/>
  </g>
  <g id="svg_9" transform="matrix(1 0 0 1 8 8)" stroke-miterlimit="2" stroke-linecap="square" stroke="#000000" fill="#000000"/>
  <g id="svg_10" transform="matrix(1 0 0 1 8 8)" fill="#00a188">
   <path id="svg_11" d="m77.24261,4.95493l-5.1,16.4c-5.6,-3.2 -11.3,-4.8 -19.8,-4.8c-21.6,0 -30.2,15.2 -30.2,30.3c0,13.4 8,20.9 22,20.9c7.5,0 14.6,-1.6 20.2,-4.4l-2.3,17.2c-5.3,1.7 -14,3.1 -21.3,3.1c-25.4,0 -40.7,-14.8 -40.7,-37.3c0,-26.6 18.5,-45.6 48.9,-45.6c11.4,0 20.9,1.5 28.3,4.2l0,0" fill-rule="nonzero" vector-effect="none"/>
  </g>
  <g id="svg_12" transform="matrix(1 0 0 1 8 8)" stroke-miterlimit="2" stroke-linecap="square" stroke="#000000" fill="#000000"/>
  <g id="svg_13" transform="matrix(1 0 0 1 8 8)" fill="#00a188">
   <path id="svg_14" d="m123.74261,18.65493l-17,31.3l20.7,0l-3.5,-31.3l-0.2,0m16.4,-16.6l13.1,80.2l-21.6,0l-2.1,-17.1l-31.2,0l-9.5,17.1l-23.2,0l47.7,-80.2l26.8,0" fill-rule="nonzero" vector-effect="none"/>
  </g>
  <g id="svg_15" transform="matrix(1 0 0 1 8 8)" stroke-miterlimit="2" stroke-linecap="square" stroke="#000000" fill="#000000"/>
  <g id="svg_16" transform="matrix(1 0 0 1 8 8)" fill="#00a188">
   <path id="svg_17" d="m193.34261,17.25493l-3.7,18.2l7.3,0c8.2,0 16.5,-1.9 16.5,-9.9c0,-7.2 -5.5,-8.3 -10.3,-8.3l-9.8,0m-17.8,-15.2l27.6,0c19.7,0 31.7,4.2 31.7,20.5c0,11.6 -7.4,18.6 -23.3,20.5l0,0.3c4.6,0.4 7.3,5 8.9,11.8l6.3,27.1l-21.3,0l-4.3,-21.1c-1.9,-9.9 -3,-10.6 -12.6,-10.6l-2,0l-6.4,31.7l-21.5,0l16.9,-80.2" fill-rule="nonzero" vector-effect="none"/>
  </g>
  <g id="svg_18" transform="matrix(1 0 0 1 8 8)" stroke-miterlimit="2" stroke-linecap="square" stroke="#000000" fill="#000000"/>
  <g id="svg_19" transform="matrix(1 0 0 1 8 8)" fill="#00a188">
   <path id="svg_20" d="m306.74261,2.05493l-3.1,15.2l-35.3,0l-3.7,16.5l33.5,0l-3.4,15.2l-33.3,0l-3.9,18.2l36.7,0l-3.1,15.1l-58,0l17.2,-80.2l56.4,0" fill-rule="nonzero" vector-effect="none"/>
  </g>
  <g id="svg_21" transform="matrix(1 0 0 1 8 8)" stroke-miterlimit="2" stroke-linecap="square" stroke="#000000" fill="#000000"/>
  <g id="svg_22" transform="matrix(1 0 0 1 8 8)" stroke-miterlimit="2" stroke-linecap="square" stroke="#000000" fill="#000000"/>
  <g id="svg_23" stroke-miterlimit="2" stroke-linecap="square" stroke="#000000" fill="#000000"/>
  <g id="svg_24" stroke-miterlimit="2" stroke-linecap="square" stroke="#000000" fill="#000000"/>
  <g id="svg_25" stroke-miterlimit="2" stroke-linecap="square" stroke="#000000" fill="#000000"/>
  <g id="svg_26" stroke-miterlimit="2" stroke-linecap="square" stroke="#000000" fill="#000000"/>
  <g id="svg_27" transform="matrix(1 0 0 1 8 8)" stroke-miterlimit="2" stroke-linecap="square" stroke="#000000" fill="#000000"/>
  <g id="svg_28" stroke-miterlimit="2" stroke-linecap="square" stroke="#000000" fill="#000000"/>
  <g id="svg_29" stroke-miterlimit="2" stroke-linecap="square" stroke="#000000" fill="#000000"/>
  <g id="svg_30" stroke-miterlimit="2" stroke-linecap="square" stroke="#000000" fill="#000000"/>
  <g id="svg_31" stroke-miterlimit="2" stroke-linecap="square" stroke="#000000" fill="#000000"/>
  <g id="svg_32" stroke-miterlimit="2" stroke-linecap="square" stroke="#000000" fill="#000000"/>
  <g id="svg_33" stroke-miterlimit="2" stroke-linecap="square" stroke="#000000" fill="#000000"/>
 </g>
</svg>